<svg xmlns="http://www.w3.org/2000/svg" width="800" height="290" viewBox="0 0 800 290">
  <defs>
    <linearGradient id="logo_green_grad" x1="0%" y1="0%" x2="100%" y2="100%">
      <stop offset="0%" style="stop-color:#0B4619;stop-opacity:1" /> 
      <stop offset="100%" style="stop-color:#15803D;stop-opacity:1" /> 
    </linearGradient>
    
    <filter id="networkShadow" x="0" y="0" width="200%" height="200%">
      <feOffset result="offOut" in="SourceAlpha" dx="2" dy="2" />
      <feGaussianBlur result="blurOut" in="offOut" stdDeviation="2" />
      <feBlend in="SourceGraphic" in2="blurOut" mode="normal" />
    </filter>
    
    <style type="text/css">
      @import url('https://fonts.googleapis.com/css2?family=Crimson+Pro:wght@500&amp;display=swap');
      .logo-text {
        font-family: 'Crimson Pro', serif;
        font-size: 96px; /* 72pxから拡大 */
        font-weight: 500;
        fill: #0B4619;
      }
    </style>
  </defs>

  <g transform="translate(10, 15)">
    <g transform="translate(30, 65) scale(1.3)" opacity="0.6">
      <path d="M 0 50 L 150 0 L 200 50 L 50 100 Z" fill="#C3DBC5" />
      <path d="M 150 0 L 200 50 L 200 80 L 150 30 Z" fill="#A7D7C5" />
      <path d="M 0 50 L 50 100 L 50 130 L 0 80 Z" fill="#99C1A6" />
    </g>

    <g transform="translate(50, 5) scale(5)" filter="url(#networkShadow)">
      <line x1="10" y1="10" x2="35" y2="15" stroke="#15803D" stroke-width="1.5" opacity="0.3" />
      <line x1="10" y1="10" x2="15" y2="40" stroke="#15803D" stroke-width="1.5" opacity="0.3" />
      <line x1="35" y1="15" x2="15" y2="40" stroke="#15803D" stroke-width="1.5" opacity="0.3" />
      
      <g transform="translate(10, 10)">
        <rect x="-4" y="-4" width="8" height="8" fill="#0B4619" />
        <rect x="-2" y="-2" width="4" height="4" fill="#15803D" />
      </g>
      <g transform="translate(35, 15)">
        <rect x="-4" y="-4" width="8" height="8" fill="#0B4619" />
        <rect x="-2" y="-2" width="4" height="4" fill="#15803D" />
      </g>
      <g transform="translate(15, 40)">
        <rect x="-6" y="-6" width="12" height="12" fill="url(#logo_green_grad)" />
        <rect x="-3" y="-3" width="6" height="6" fill="#FFF" />
      </g>
    </g>
    
    <text x="320" y="165" class="logo-text">Manny Lab</text>
  </g>
</svg>
